<?xml version="1.0" encoding="utf-8"?>
<!-- Generator: Adobe Illustrator 19.1.0, SVG Export Plug-In . SVG Version: 6.00 Build 0)  -->
<svg version="1.1" xmlns="http://www.w3.org/2000/svg" xmlns:xlink="http://www.w3.org/1999/xlink" x="0px" y="0px"
	 viewBox="0 0 120 120" style="enable-background:new 0 0 120 120;" xml:space="preserve">
<style type="text/css">
	.st0{fill:#8DC63F;}
	.st1{fill:#FFFFFF;}
	.st2{display:none;}
	.st3{display:inline;}
	.st4{opacity:0.25;}
	.st5{fill:none;stroke:#000000;stroke-width:0.25;stroke-miterlimit:10;}
</style>
<g id="Layer_2">
	<circle class="st0" cx="60" cy="60" r="60"/>
	<g>
		<path class="st1" d="M65.3,79.6V58.8H40.5v20.8h-3V36.3h3v19.8h24.8V36.3h3v43.3H65.3z"/>
		<path class="st1" d="M80.1,40.8c-0.6,0-1.1-0.2-1.6-0.7c-0.5-0.4-0.7-1-0.7-1.7c0-0.7,0.2-1.2,0.7-1.6c0.5-0.4,1-0.6,1.6-0.6
			c0.6,0,1.2,0.2,1.6,0.6c0.5,0.4,0.7,0.9,0.7,1.6c0,0.6-0.2,1.2-0.7,1.7C81.3,40.6,80.8,40.8,80.1,40.8z M78.8,79.6V48.6h2.8v30.9
			H78.8z"/>
	</g>
</g>
<g id="Guides" class="st2">
	<g class="st3">
		<g class="st4">
			<rect class="st5" width="120" height="120"/>
			<line class="st5" x1="0" y1="117.1" x2="120" y2="117.1"/>
			<line class="st5" x1="0" y1="114.1" x2="120" y2="114.1"/>
			<line class="st5" x1="0" y1="111.2" x2="120" y2="111.2"/>
			<line class="st5" x1="0" y1="108.3" x2="120" y2="108.3"/>
			<line class="st5" x1="0" y1="105.4" x2="120" y2="105.4"/>
			<line class="st5" x1="0" y1="102.4" x2="120" y2="102.4"/>
			<line class="st5" x1="0" y1="99.5" x2="120" y2="99.5"/>
			<line class="st5" x1="0" y1="96.6" x2="120" y2="96.6"/>
			<line class="st5" x1="0" y1="93.7" x2="120" y2="93.7"/>
			<line class="st5" x1="0" y1="90.7" x2="120" y2="90.7"/>
			<line class="st5" x1="0" y1="87.8" x2="120" y2="87.8"/>
			<line class="st5" x1="0" y1="84.9" x2="120" y2="84.9"/>
			<line class="st5" x1="0" y1="82" x2="120" y2="82"/>
			<line class="st5" x1="0" y1="79" x2="120" y2="79"/>
			<line class="st5" x1="0" y1="76.1" x2="120" y2="76.1"/>
			<line class="st5" x1="0" y1="73.2" x2="120" y2="73.2"/>
			<line class="st5" x1="0" y1="70.2" x2="120" y2="70.2"/>
			<line class="st5" x1="0" y1="67.3" x2="120" y2="67.3"/>
			<line class="st5" x1="0" y1="64.4" x2="120" y2="64.4"/>
			<line class="st5" x1="0" y1="61.5" x2="120" y2="61.5"/>
			<line class="st5" x1="0" y1="58.5" x2="120" y2="58.5"/>
			<line class="st5" x1="0" y1="55.6" x2="120" y2="55.6"/>
			<line class="st5" x1="0" y1="52.7" x2="120" y2="52.7"/>
			<line class="st5" x1="0" y1="49.8" x2="120" y2="49.8"/>
			<line class="st5" x1="0" y1="46.8" x2="120" y2="46.8"/>
			<line class="st5" x1="0" y1="43.9" x2="120" y2="43.9"/>
			<line class="st5" x1="0" y1="41" x2="120" y2="41"/>
			<line class="st5" x1="0" y1="38" x2="120" y2="38"/>
			<line class="st5" x1="0" y1="35.1" x2="120" y2="35.1"/>
			<line class="st5" x1="0" y1="32.2" x2="120" y2="32.2"/>
			<line class="st5" x1="0" y1="29.3" x2="120" y2="29.3"/>
			<line class="st5" x1="0" y1="26.3" x2="120" y2="26.3"/>
			<line class="st5" x1="0" y1="23.4" x2="120" y2="23.4"/>
			<line class="st5" x1="0" y1="20.5" x2="120" y2="20.5"/>
			<line class="st5" x1="0" y1="17.6" x2="120" y2="17.6"/>
			<line class="st5" x1="0" y1="14.6" x2="120" y2="14.6"/>
			<line class="st5" x1="0" y1="11.7" x2="120" y2="11.7"/>
			<line class="st5" x1="0" y1="8.8" x2="120" y2="8.8"/>
			<line class="st5" x1="0" y1="5.9" x2="120" y2="5.9"/>
			<line class="st5" x1="0" y1="2.9" x2="120" y2="2.9"/>
			<line class="st5" x1="117.1" y1="0" x2="117.1" y2="120"/>
			<line class="st5" x1="114.1" y1="0" x2="114.1" y2="120"/>
			<line class="st5" x1="111.2" y1="0" x2="111.2" y2="120"/>
			<line class="st5" x1="108.3" y1="0" x2="108.3" y2="120"/>
			<line class="st5" x1="105.4" y1="0" x2="105.4" y2="120"/>
			<line class="st5" x1="102.4" y1="0" x2="102.4" y2="120"/>
			<line class="st5" x1="99.5" y1="0" x2="99.5" y2="120"/>
			<line class="st5" x1="96.6" y1="0" x2="96.6" y2="120"/>
			<line class="st5" x1="93.7" y1="0" x2="93.7" y2="120"/>
			<line class="st5" x1="90.7" y1="0" x2="90.7" y2="120"/>
			<line class="st5" x1="87.8" y1="0" x2="87.8" y2="120"/>
			<line class="st5" x1="84.9" y1="0" x2="84.9" y2="120"/>
			<line class="st5" x1="82" y1="0" x2="82" y2="120"/>
			<line class="st5" x1="79" y1="0" x2="79" y2="120"/>
			<line class="st5" x1="76.1" y1="0" x2="76.1" y2="120"/>
			<line class="st5" x1="73.2" y1="0" x2="73.2" y2="120"/>
			<line class="st5" x1="70.2" y1="0" x2="70.2" y2="120"/>
			<line class="st5" x1="67.3" y1="0" x2="67.3" y2="120"/>
			<line class="st5" x1="64.4" y1="0" x2="64.4" y2="120"/>
			<line class="st5" x1="61.5" y1="0" x2="61.5" y2="120"/>
			<line class="st5" x1="58.5" y1="0" x2="58.5" y2="120"/>
			<line class="st5" x1="55.6" y1="0" x2="55.6" y2="120"/>
			<line class="st5" x1="52.7" y1="0" x2="52.7" y2="120"/>
			<line class="st5" x1="49.8" y1="0" x2="49.8" y2="120"/>
			<line class="st5" x1="46.8" y1="0" x2="46.8" y2="120"/>
			<line class="st5" x1="43.9" y1="0" x2="43.9" y2="120"/>
			<line class="st5" x1="41" y1="0" x2="41" y2="120"/>
			<line class="st5" x1="38" y1="0" x2="38" y2="120"/>
			<line class="st5" x1="35.1" y1="0" x2="35.1" y2="120"/>
			<line class="st5" x1="32.2" y1="0" x2="32.2" y2="120"/>
			<line class="st5" x1="29.3" y1="0" x2="29.3" y2="120"/>
			<line class="st5" x1="26.3" y1="0" x2="26.3" y2="120"/>
			<line class="st5" x1="23.4" y1="0" x2="23.4" y2="120"/>
			<line class="st5" x1="20.5" y1="0" x2="20.5" y2="120"/>
			<line class="st5" x1="17.6" y1="0" x2="17.6" y2="120"/>
			<line class="st5" x1="14.6" y1="0" x2="14.6" y2="120"/>
			<line class="st5" x1="11.7" y1="0" x2="11.7" y2="120"/>
			<line class="st5" x1="8.8" y1="0" x2="8.8" y2="120"/>
			<line class="st5" x1="5.9" y1="0" x2="5.9" y2="120"/>
			<line class="st5" x1="2.9" y1="0" x2="2.9" y2="120"/>
		</g>
		<circle class="st5" cx="60" cy="60" r="60"/>
		<circle class="st5" cx="60" cy="60" r="45.4"/>
	</g>
</g>
</svg>
