<?xml version="1.0" encoding="utf-8"?>
<!-- Generator: Adobe Illustrator 19.1.0, SVG Export Plug-In . SVG Version: 6.00 Build 0)  -->
<svg version="1.1" id="Layer_2" xmlns="http://www.w3.org/2000/svg" xmlns:xlink="http://www.w3.org/1999/xlink" x="0px" y="0px"
	 viewBox="0 0 120 120" style="enable-background:new 0 0 120 120;" xml:space="preserve">
<style type="text/css">
	.st0{fill:#414042;}
	.st1{fill:#FFFFFF;}
	.st2{fill:#FFFFFF;stroke:#414042;stroke-width:3;stroke-miterlimit:10;}
	.st3{fill:#939598;}
	.st4{fill:#00AEEF;}
</style>
<circle class="st0" cx="60" cy="60" r="60"/>
<g>
	<polygon class="st1" points="27.3,15 27.3,99.8 92.7,99.8 92.7,34.2 73.5,15 	"/>
	<polygon class="st2" points="92.7,34.2 73.5,15 73.5,34.2 	"/>
</g>
<g>
	<g>
		<path d="M52.8,40l-3.5,13.1h-3.3l-2.2-8.4c-0.1-0.4-0.2-0.9-0.2-1.5h0c-0.1,0.6-0.1,1.1-0.2,1.5l-2.2,8.4h-3.4L34.4,40h3.2
			l1.8,8.7c0.1,0.4,0.1,0.9,0.2,1.5h0.1c0-0.5,0.1-1,0.3-1.5l2.4-8.7h3.2l2.1,8.8c0.1,0.3,0.1,0.8,0.2,1.4h0c0-0.5,0.1-1,0.2-1.5
			l1.8-8.7H52.8z"/>
		<path d="M58.1,53.3c-1.6,0-2.8-0.4-3.7-1.3s-1.3-2.1-1.3-3.5c0-1.5,0.5-2.8,1.4-3.6s2.2-1.3,3.7-1.3c1.5,0,2.8,0.4,3.6,1.3
			c0.9,0.9,1.3,2,1.3,3.5c0,1.5-0.5,2.8-1.4,3.7C60.9,52.8,59.7,53.3,58.1,53.3z M58.2,45.7c-0.7,0-1.2,0.2-1.6,0.7
			c-0.4,0.5-0.6,1.1-0.6,2c0,1.8,0.7,2.7,2.2,2.7c1.4,0,2.1-0.9,2.1-2.8C60.3,46.6,59.6,45.7,58.2,45.7z"/>
		<path d="M71.2,46.3C70.8,46.1,70.4,46,70,46c-0.6,0-1.1,0.2-1.5,0.7S68,47.8,68,48.6v4.5h-2.9v-9.3H68v1.7h0
			c0.5-1.3,1.3-1.9,2.5-1.9c0.3,0,0.5,0,0.7,0.1V46.3z"/>
		<path d="M81.6,53.1h-2.9v-1.3h0c-0.7,1-1.6,1.5-2.9,1.5c-1.2,0-2.1-0.4-2.8-1.2c-0.7-0.8-1.1-2-1.1-3.4c0-1.5,0.4-2.8,1.2-3.7
			c0.8-0.9,1.8-1.4,3.1-1.4c1.2,0,2,0.4,2.5,1.3h0v-5.5h2.9V53.1z M78.7,48.5v-0.7c0-0.6-0.2-1.1-0.5-1.5s-0.8-0.6-1.4-0.6
			c-0.6,0-1.1,0.3-1.5,0.8s-0.5,1.2-0.5,2.1c0,0.8,0.2,1.5,0.5,1.9c0.3,0.4,0.8,0.7,1.4,0.7c0.6,0,1.1-0.2,1.4-0.7
			C78.6,49.9,78.7,49.3,78.7,48.5z"/>
		<path d="M45.1,68.6c-1,0.5-2.2,0.7-3.7,0.7c-2,0-3.6-0.6-4.7-1.8c-1.1-1.2-1.7-2.7-1.7-4.7c0-2.1,0.6-3.8,1.9-5.1
			c1.3-1.3,3-1.9,5-1.9c1.3,0,2.4,0.2,3.2,0.5v2.8c-0.9-0.5-1.9-0.8-3-0.8c-1.2,0-2.2,0.4-3,1.2c-0.8,0.8-1.1,1.8-1.1,3.1
			c0,1.3,0.4,2.3,1.1,3c0.7,0.8,1.7,1.1,2.9,1.1c1.1,0,2.2-0.3,3.2-0.8V68.6z"/>
		<path d="M51.5,69.3c-1.6,0-2.8-0.4-3.7-1.3c-0.9-0.9-1.3-2.1-1.3-3.5c0-1.5,0.5-2.8,1.4-3.6c0.9-0.9,2.2-1.3,3.7-1.3
			c1.5,0,2.8,0.4,3.6,1.3c0.9,0.9,1.3,2,1.3,3.5c0,1.5-0.5,2.8-1.4,3.7C54.3,68.8,53.1,69.3,51.5,69.3z M51.6,61.7
			c-0.7,0-1.2,0.2-1.6,0.7s-0.6,1.1-0.6,2c0,1.8,0.7,2.7,2.2,2.7c1.4,0,2.1-0.9,2.1-2.8C53.7,62.6,53,61.7,51.6,61.7z"/>
		<path d="M67.3,69.1h-2.9v-1.4h0c-0.7,1.1-1.7,1.6-2.9,1.6c-2.2,0-3.2-1.3-3.2-3.9v-5.6h2.9v5.4c0,1.3,0.5,2,1.6,2
			c0.5,0,0.9-0.2,1.2-0.5c0.3-0.4,0.5-0.9,0.5-1.5v-5.3h2.9V69.1z"/>
		<path d="M78.8,69.1h-2.9v-5.2c0-1.4-0.5-2.2-1.5-2.2c-0.5,0-0.9,0.2-1.2,0.6c-0.3,0.4-0.5,0.9-0.5,1.5v5.3h-2.9v-9.3h2.9v1.5h0
			c0.7-1.1,1.7-1.7,3-1.7c2.1,0,3.1,1.3,3.1,3.8V69.1z"/>
		<path d="M86.7,68.9c-0.4,0.2-1.1,0.3-1.9,0.3c-2,0-3-1.1-3-3.2v-4.3h-1.5v-2.1h1.5v-2l2.9-0.8v2.8h2.1v2.1h-2.1v3.8
			c0,1,0.4,1.5,1.2,1.5c0.3,0,0.6-0.1,0.9-0.3V68.9z"/>
	</g>
</g>
<g>
	<g>
		<rect x="34.5" y="79.6" class="st3" width="53.2" height="2"/>
	</g>
	<g>
		<rect x="34.2" y="89.9" class="st3" width="53.5" height="2"/>
	</g>
	<path class="st4" d="M38.5,84.5L38.5,84.5c-1.4,0-2.6-1.2-2.6-2.6v-2.7c0-1.4,1.2-2.6,2.6-2.6h0c1.4,0,2.6,1.2,2.6,2.6v2.7
		C41.1,83.3,40,84.5,38.5,84.5z"/>
	<path class="st4" d="M44.5,84.5L44.5,84.5c-1.4,0-2.6-1.2-2.6-2.6v-2.7c0-1.4,1.2-2.6,2.6-2.6h0c1.4,0,2.6,1.2,2.6,2.6v2.7
		C47.1,83.3,45.9,84.5,44.5,84.5z"/>
	<path class="st4" d="M50.8,84.5L50.8,84.5c-1.4,0-2.6-1.2-2.6-2.6v-2.7c0-1.4,1.2-2.6,2.6-2.6h0c1.4,0,2.6,1.2,2.6,2.6v2.7
		C53.4,83.3,52.3,84.5,50.8,84.5z"/>
	<path class="st4" d="M56.9,84.5L56.9,84.5c-1.4,0-2.6-1.2-2.6-2.6v-2.7c0-1.4,1.2-2.6,2.6-2.6h0c1.4,0,2.6,1.2,2.6,2.6v2.7
		C59.4,83.3,58.3,84.5,56.9,84.5z"/>
	<path class="st4" d="M63,84.5L63,84.5c-1.4,0-2.6-1.2-2.6-2.6v-2.7c0-1.4,1.2-2.6,2.6-2.6h0c1.4,0,2.6,1.2,2.6,2.6v2.7
		C65.6,83.3,64.4,84.5,63,84.5z"/>
	<path class="st4" d="M38.5,94.9L38.5,94.9c-1.4,0-2.6-1.2-2.6-2.6v-2.7c0-1.4,1.2-2.6,2.6-2.6h0c1.4,0,2.6,1.2,2.6,2.6v2.7
		C41.1,93.7,40,94.9,38.5,94.9z"/>
	<path class="st4" d="M44.5,94.9L44.5,94.9c-1.4,0-2.6-1.2-2.6-2.6v-2.7c0-1.4,1.2-2.6,2.6-2.6h0c1.4,0,2.6,1.2,2.6,2.6v2.7
		C47.1,93.7,45.9,94.9,44.5,94.9z"/>
	<path class="st4" d="M50.8,94.9L50.8,94.9c-1.4,0-2.6-1.2-2.6-2.6v-2.7c0-1.4,1.2-2.6,2.6-2.6h0c1.4,0,2.6,1.2,2.6,2.6v2.7
		C53.4,93.7,52.3,94.9,50.8,94.9z"/>
	<path class="st4" d="M77.7,94.9L77.7,94.9c-1.4,0-2.6-1.2-2.6-2.6v-2.7c0-1.4,1.2-2.6,2.6-2.6h0c1.4,0,2.6,1.2,2.6,2.6v2.7
		C80.3,93.7,79.1,94.9,77.7,94.9z"/>
	<path class="st4" d="M83.7,94.9L83.7,94.9c-1.4,0-2.6-1.2-2.6-2.6v-2.7c0-1.4,1.2-2.6,2.6-2.6l0,0c1.4,0,2.6,1.2,2.6,2.6v2.7
		C86.3,93.7,85.1,94.9,83.7,94.9z"/>
</g>
</svg>
